<?xml version="1.0" standalone="no"?><!DOCTYPE svg PUBLIC "-//W3C//DTD SVG 1.1//EN" "http://www.w3.org/Graphics/SVG/1.1/DTD/svg11.dtd"><svg t="1729149752004" class="icon" viewBox="0 0 1024 1024" version="1.1" xmlns="http://www.w3.org/2000/svg" p-id="7883" xmlns:xlink="http://www.w3.org/1999/xlink" width="200" height="200"><path d="M493.714286 54.857143A54.857143 54.857143 0 0 1 548.571429 0a182.857143 182.857143 0 1 1 0 365.714286H54.857143a54.857143 54.857143 0 0 1 0-109.714286H548.571429a73.142857 73.142857 0 0 0 0-146.285714 54.857143 54.857143 0 0 1-54.857143-54.857143zM146.285714 512a54.857143 54.857143 0 0 1 54.857143-54.857143h640a182.857143 182.857143 0 0 1 0 365.714286 54.857143 54.857143 0 0 1 0-109.714286 73.142857 73.142857 0 1 0 0-146.285714H201.142857A54.857143 54.857143 0 0 1 146.285714 512z m-18.285714 146.285714a54.857143 54.857143 0 0 0 0 109.714286h402.285714a73.142857 73.142857 0 0 1 0 146.285714 54.857143 54.857143 0 0 0 0 109.714286 182.857143 182.857143 0 0 0 0-365.714286h-402.285714z" fill="#000000" p-id="7884"></path></svg>